<mxfile host="Electron" modified="2023-12-13T01:59:40.368Z" agent="Mozilla/5.0 (X11; Linux x86_64) AppleWebKit/537.36 (KHTML, like Gecko) draw.io/22.1.2 Chrome/114.0.5735.289 Electron/25.9.4 Safari/537.36" etag="HBHEbObhZ9PmOzTnS_le" version="22.1.2" type="device" pages="4">
  <diagram name="hardware-design" id="tIbyk6kImaDQXcnWKA_f">
    <mxGraphModel dx="422" dy="300" grid="1" gridSize="10" guides="1" tooltips="1" connect="1" arrows="1" fold="1" page="1" pageScale="1" pageWidth="850" pageHeight="1100" math="0" shadow="0">
      <root>
        <mxCell id="0" />
        <mxCell id="1" parent="0" />
        <mxCell id="9nm7LYMBVtHlUSe8yeGl-5" style="edgeStyle=orthogonalEdgeStyle;rounded=0;orthogonalLoop=1;jettySize=auto;html=1;entryX=0.5;entryY=0;entryDx=0;entryDy=0;startArrow=classic;startFill=1;" parent="1" source="9nm7LYMBVtHlUSe8yeGl-1" target="9nm7LYMBVtHlUSe8yeGl-3" edge="1">
          <mxGeometry relative="1" as="geometry" />
        </mxCell>
        <mxCell id="9nm7LYMBVtHlUSe8yeGl-7" style="edgeStyle=orthogonalEdgeStyle;rounded=0;orthogonalLoop=1;jettySize=auto;html=1;entryX=0;entryY=0.5;entryDx=0;entryDy=0;" parent="1" source="9nm7LYMBVtHlUSe8yeGl-1" target="9nm7LYMBVtHlUSe8yeGl-6" edge="1">
          <mxGeometry relative="1" as="geometry" />
        </mxCell>
        <mxCell id="9nm7LYMBVtHlUSe8yeGl-11" style="edgeStyle=orthogonalEdgeStyle;rounded=0;orthogonalLoop=1;jettySize=auto;html=1;entryX=0.5;entryY=1;entryDx=0;entryDy=0;" parent="1" source="9nm7LYMBVtHlUSe8yeGl-1" target="9nm7LYMBVtHlUSe8yeGl-10" edge="1">
          <mxGeometry relative="1" as="geometry" />
        </mxCell>
        <mxCell id="9nm7LYMBVtHlUSe8yeGl-1" value="ESP32" style="rounded=0;whiteSpace=wrap;html=1;fillColor=#cdeb8b;strokeColor=#36393d;fontStyle=1;fontSize=14;" parent="1" vertex="1">
          <mxGeometry x="325" y="120" width="85" height="50" as="geometry" />
        </mxCell>
        <mxCell id="9nm7LYMBVtHlUSe8yeGl-4" style="edgeStyle=orthogonalEdgeStyle;rounded=0;orthogonalLoop=1;jettySize=auto;html=1;entryX=0;entryY=0.5;entryDx=0;entryDy=0;" parent="1" source="9nm7LYMBVtHlUSe8yeGl-2" target="9nm7LYMBVtHlUSe8yeGl-1" edge="1">
          <mxGeometry relative="1" as="geometry" />
        </mxCell>
        <mxCell id="9nm7LYMBVtHlUSe8yeGl-2" value="DHT10" style="rounded=0;whiteSpace=wrap;html=1;fillColor=#cdeb8b;strokeColor=#36393d;fontStyle=0;fontSize=14;" parent="1" vertex="1">
          <mxGeometry x="190" y="120" width="85" height="50" as="geometry" />
        </mxCell>
        <mxCell id="9nm7LYMBVtHlUSe8yeGl-3" value="LittleFS" style="rounded=0;whiteSpace=wrap;html=1;fillColor=#cdeb8b;strokeColor=#36393d;fontStyle=0;fontSize=14;" parent="1" vertex="1">
          <mxGeometry x="325" y="210" width="85" height="50" as="geometry" />
        </mxCell>
        <mxCell id="9nm7LYMBVtHlUSe8yeGl-6" value="WiFi" style="rounded=0;whiteSpace=wrap;html=1;fillColor=#cdeb8b;strokeColor=#36393d;fontStyle=0;fontSize=14;" parent="1" vertex="1">
          <mxGeometry x="450" y="120" width="85" height="50" as="geometry" />
        </mxCell>
        <mxCell id="9nm7LYMBVtHlUSe8yeGl-10" value="SSD1306" style="rounded=0;whiteSpace=wrap;html=1;fillColor=#cdeb8b;strokeColor=#36393d;fontStyle=0;fontSize=14;" parent="1" vertex="1">
          <mxGeometry x="325" y="40" width="85" height="50" as="geometry" />
        </mxCell>
        <mxCell id="9nm7LYMBVtHlUSe8yeGl-12" value="" style="edgeStyle=orthogonalEdgeStyle;rounded=0;orthogonalLoop=1;jettySize=auto;html=1;" parent="1" source="9nm7LYMBVtHlUSe8yeGl-6" target="9nm7LYMBVtHlUSe8yeGl-9" edge="1">
          <mxGeometry relative="1" as="geometry">
            <mxPoint x="620" y="145" as="targetPoint" />
            <mxPoint x="535" y="145" as="sourcePoint" />
          </mxGeometry>
        </mxCell>
        <mxCell id="9nm7LYMBVtHlUSe8yeGl-9" value="MQTT Broker" style="text;html=1;strokeColor=none;fillColor=none;align=center;verticalAlign=middle;whiteSpace=wrap;rounded=0;fontSize=14;" parent="1" vertex="1">
          <mxGeometry x="570" y="130" width="90" height="30" as="geometry" />
        </mxCell>
        <mxCell id="JDi4blikoqZrZPYgyDcK-1" style="edgeStyle=orthogonalEdgeStyle;rounded=0;orthogonalLoop=1;jettySize=auto;html=1;entryX=0.5;entryY=0;entryDx=0;entryDy=0;startArrow=classic;startFill=1;" parent="1" source="JDi4blikoqZrZPYgyDcK-4" target="JDi4blikoqZrZPYgyDcK-7" edge="1">
          <mxGeometry relative="1" as="geometry" />
        </mxCell>
        <mxCell id="JDi4blikoqZrZPYgyDcK-2" value="I2C" style="edgeStyle=orthogonalEdgeStyle;rounded=0;orthogonalLoop=1;jettySize=auto;html=1;entryX=0;entryY=0.5;entryDx=0;entryDy=0;" parent="1" source="JDi4blikoqZrZPYgyDcK-4" target="JDi4blikoqZrZPYgyDcK-8" edge="1">
          <mxGeometry relative="1" as="geometry" />
        </mxCell>
        <mxCell id="JDi4blikoqZrZPYgyDcK-3" value="I2C" style="edgeStyle=orthogonalEdgeStyle;rounded=0;orthogonalLoop=1;jettySize=auto;html=1;entryX=0.5;entryY=1;entryDx=0;entryDy=0;startArrow=classic;startFill=1;" parent="1" source="JDi4blikoqZrZPYgyDcK-4" target="JDi4blikoqZrZPYgyDcK-9" edge="1">
          <mxGeometry relative="1" as="geometry" />
        </mxCell>
        <mxCell id="JDi4blikoqZrZPYgyDcK-4" value="ESP32" style="rounded=0;whiteSpace=wrap;html=1;fillColor=#cdeb8b;strokeColor=#36393d;fontStyle=1;fontSize=14;" parent="1" vertex="1">
          <mxGeometry x="315" y="440" width="85" height="50" as="geometry" />
        </mxCell>
        <mxCell id="JDi4blikoqZrZPYgyDcK-5" value="GPIO" style="edgeStyle=orthogonalEdgeStyle;rounded=0;orthogonalLoop=1;jettySize=auto;html=1;entryX=0;entryY=0.25;entryDx=0;entryDy=0;" parent="1" source="JDi4blikoqZrZPYgyDcK-6" target="JDi4blikoqZrZPYgyDcK-4" edge="1">
          <mxGeometry relative="1" as="geometry" />
        </mxCell>
        <mxCell id="JDi4blikoqZrZPYgyDcK-6" value="DHT22" style="rounded=0;whiteSpace=wrap;html=1;fillColor=#cdeb8b;strokeColor=#36393d;fontStyle=0;fontSize=14;" parent="1" vertex="1">
          <mxGeometry x="160" y="420" width="85" height="50" as="geometry" />
        </mxCell>
        <mxCell id="JDi4blikoqZrZPYgyDcK-7" value="LittleFS" style="rounded=0;whiteSpace=wrap;html=1;fillColor=#cdeb8b;strokeColor=#36393d;fontStyle=0;fontSize=14;" parent="1" vertex="1">
          <mxGeometry x="315" y="525" width="85" height="50" as="geometry" />
        </mxCell>
        <mxCell id="JDi4blikoqZrZPYgyDcK-8" value="SSD1306" style="rounded=0;whiteSpace=wrap;html=1;fillColor=#cdeb8b;strokeColor=#36393d;fontStyle=0;fontSize=14;" parent="1" vertex="1">
          <mxGeometry x="450" y="440" width="85" height="50" as="geometry" />
        </mxCell>
        <mxCell id="JDi4blikoqZrZPYgyDcK-9" value="DS3231" style="rounded=0;whiteSpace=wrap;html=1;fillColor=#cdeb8b;strokeColor=#36393d;fontStyle=0;fontSize=14;" parent="1" vertex="1">
          <mxGeometry x="315" y="350" width="85" height="50" as="geometry" />
        </mxCell>
        <mxCell id="2oo0TW8IViTxEhBXVpfm-5" value="UART" style="edgeStyle=orthogonalEdgeStyle;rounded=0;orthogonalLoop=1;jettySize=auto;html=1;entryX=0;entryY=0.75;entryDx=0;entryDy=0;" edge="1" parent="1" source="2oo0TW8IViTxEhBXVpfm-3" target="JDi4blikoqZrZPYgyDcK-4">
          <mxGeometry relative="1" as="geometry" />
        </mxCell>
        <mxCell id="2oo0TW8IViTxEhBXVpfm-3" value="Serial Terminal" style="rounded=0;whiteSpace=wrap;html=1;fillColor=#cdeb8b;strokeColor=#36393d;fontStyle=0;fontSize=14;" vertex="1" parent="1">
          <mxGeometry x="160" y="475" width="85" height="50" as="geometry" />
        </mxCell>
      </root>
    </mxGraphModel>
  </diagram>
  <diagram id="j13wN1az7Kc-plYniWI2" name="firmware-architecture">
    <mxGraphModel dx="615" dy="438" grid="1" gridSize="10" guides="1" tooltips="1" connect="1" arrows="1" fold="1" page="1" pageScale="1" pageWidth="850" pageHeight="1100" background="#ffffff" math="0" shadow="0">
      <root>
        <mxCell id="0" />
        <mxCell id="1" parent="0" />
        <mxCell id="jSD8NSGnrTcUN9SXQ439-2" value="" style="rounded=0;whiteSpace=wrap;html=1;fillColor=none;" parent="1" vertex="1">
          <mxGeometry x="168.5" y="600" width="490" height="50" as="geometry" />
        </mxCell>
        <mxCell id="yrqPe_XxJN6eDIBGjcw5-13" value="" style="rounded=0;whiteSpace=wrap;html=1;fillColor=none;" parent="1" vertex="1">
          <mxGeometry x="130" y="830" width="482.5" height="50" as="geometry" />
        </mxCell>
        <mxCell id="jSD8NSGnrTcUN9SXQ439-1" value="" style="rounded=0;whiteSpace=wrap;html=1;fillColor=none;" parent="1" vertex="1">
          <mxGeometry x="168" y="470" width="490" height="130" as="geometry" />
        </mxCell>
        <mxCell id="Wo7ga6NTU0wfcAZjPLxe-1" value="DHT22" style="rounded=0;whiteSpace=wrap;html=1;fillColor=#ffff88;strokeColor=#36393d;fontStyle=0;fontSize=14;" parent="1" vertex="1">
          <mxGeometry x="175.5" y="610" width="85" height="30" as="geometry" />
        </mxCell>
        <mxCell id="Wo7ga6NTU0wfcAZjPLxe-2" value="LittleFS" style="rounded=0;whiteSpace=wrap;html=1;fillColor=#ffff88;strokeColor=#36393d;fontStyle=0;fontSize=14;" parent="1" vertex="1">
          <mxGeometry x="465.5" y="610" width="185" height="30" as="geometry" />
        </mxCell>
        <mxCell id="Wo7ga6NTU0wfcAZjPLxe-3" value="WiFi" style="rounded=0;whiteSpace=wrap;html=1;fillColor=#ffff88;strokeColor=#36393d;fontStyle=0;fontSize=14;" parent="1" vertex="1">
          <mxGeometry x="370.5" y="610" width="85" height="30" as="geometry" />
        </mxCell>
        <mxCell id="Wo7ga6NTU0wfcAZjPLxe-4" value="SSD1306" style="rounded=0;whiteSpace=wrap;html=1;fillColor=#ffff88;strokeColor=#36393d;fontStyle=0;fontSize=14;" parent="1" vertex="1">
          <mxGeometry x="270.5" y="610" width="85" height="30" as="geometry" />
        </mxCell>
        <mxCell id="Wo7ga6NTU0wfcAZjPLxe-5" value="Sensor" style="rounded=0;whiteSpace=wrap;html=1;fillColor=#cdeb8b;strokeColor=#36393d;fontStyle=0;fontSize=14;" parent="1" vertex="1">
          <mxGeometry x="175" y="520" width="85" height="70" as="geometry" />
        </mxCell>
        <mxCell id="Wo7ga6NTU0wfcAZjPLxe-6" value="Storage" style="rounded=0;whiteSpace=wrap;html=1;fillColor=#cdeb8b;strokeColor=#36393d;fontStyle=0;fontSize=14;" parent="1" vertex="1">
          <mxGeometry x="465" y="560" width="185" height="30" as="geometry" />
        </mxCell>
        <mxCell id="Wo7ga6NTU0wfcAZjPLxe-7" value="Network" style="rounded=0;whiteSpace=wrap;html=1;fillColor=#cdeb8b;strokeColor=#36393d;fontStyle=0;fontSize=14;" parent="1" vertex="1">
          <mxGeometry x="370" y="520" width="85" height="70" as="geometry" />
        </mxCell>
        <mxCell id="Wo7ga6NTU0wfcAZjPLxe-8" value="Display" style="rounded=0;whiteSpace=wrap;html=1;fillColor=#cdeb8b;strokeColor=#36393d;fontStyle=0;fontSize=14;" parent="1" vertex="1">
          <mxGeometry x="270" y="520" width="85" height="70" as="geometry" />
        </mxCell>
        <mxCell id="Wo7ga6NTU0wfcAZjPLxe-9" value="Top-Level Application" style="rounded=0;whiteSpace=wrap;html=1;fillColor=#cce5ff;strokeColor=#36393d;fontStyle=0;fontSize=14;" parent="1" vertex="1">
          <mxGeometry x="175" y="480" width="475" height="30" as="geometry" />
        </mxCell>
        <mxCell id="Wo7ga6NTU0wfcAZjPLxe-10" value="Settings" style="rounded=0;whiteSpace=wrap;html=1;fillColor=#cdeb8b;strokeColor=#36393d;fontStyle=0;fontSize=14;" parent="1" vertex="1">
          <mxGeometry x="465" y="520" width="85" height="30" as="geometry" />
        </mxCell>
        <mxCell id="Wo7ga6NTU0wfcAZjPLxe-11" value="Ring Buffer" style="rounded=0;whiteSpace=wrap;html=1;fillColor=#cdeb8b;strokeColor=#36393d;fontStyle=0;fontSize=14;" parent="1" vertex="1">
          <mxGeometry x="564" y="520" width="85" height="30" as="geometry" />
        </mxCell>
        <mxCell id="yrqPe_XxJN6eDIBGjcw5-1" value="" style="rounded=0;whiteSpace=wrap;html=1;fillColor=none;" parent="1" vertex="1">
          <mxGeometry x="130" y="700" width="482.5" height="130" as="geometry" />
        </mxCell>
        <mxCell id="yrqPe_XxJN6eDIBGjcw5-2" value="DHT22" style="rounded=0;whiteSpace=wrap;html=1;fillColor=#ffff88;strokeColor=#36393d;fontStyle=0;fontSize=14;" parent="1" vertex="1">
          <mxGeometry x="328.5" y="840" width="85" height="30" as="geometry" />
        </mxCell>
        <mxCell id="yrqPe_XxJN6eDIBGjcw5-3" value="LittleFS" style="rounded=0;whiteSpace=wrap;html=1;fillColor=#ffff88;strokeColor=#36393d;fontStyle=0;fontSize=14;" parent="1" vertex="1">
          <mxGeometry x="517.5" y="840" width="85" height="30" as="geometry" />
        </mxCell>
        <mxCell id="yrqPe_XxJN6eDIBGjcw5-5" value="SSD1306" style="rounded=0;whiteSpace=wrap;html=1;fillColor=#ffff88;strokeColor=#36393d;fontStyle=0;fontSize=14;" parent="1" vertex="1">
          <mxGeometry x="423.5" y="840" width="85" height="30" as="geometry" />
        </mxCell>
        <mxCell id="06KCs6LuLPnl9y4rcM3Y-5" style="edgeStyle=orthogonalEdgeStyle;rounded=0;orthogonalLoop=1;jettySize=auto;html=1;entryX=0.5;entryY=0;entryDx=0;entryDy=0;fillColor=#f8cecc;strokeColor=#b85450;" parent="1" source="yrqPe_XxJN6eDIBGjcw5-6" target="yrqPe_XxJN6eDIBGjcw5-2" edge="1">
          <mxGeometry relative="1" as="geometry" />
        </mxCell>
        <mxCell id="yrqPe_XxJN6eDIBGjcw5-6" value="Sensor" style="rounded=0;whiteSpace=wrap;html=1;fillColor=#cdeb8b;strokeColor=#36393d;fontStyle=0;fontSize=14;" parent="1" vertex="1">
          <mxGeometry x="328" y="750" width="85" height="70" as="geometry" />
        </mxCell>
        <mxCell id="06KCs6LuLPnl9y4rcM3Y-7" style="edgeStyle=orthogonalEdgeStyle;rounded=0;orthogonalLoop=1;jettySize=auto;html=1;entryX=0.5;entryY=0;entryDx=0;entryDy=0;fillColor=#f8cecc;strokeColor=#b85450;" parent="1" source="yrqPe_XxJN6eDIBGjcw5-7" target="yrqPe_XxJN6eDIBGjcw5-3" edge="1">
          <mxGeometry relative="1" as="geometry" />
        </mxCell>
        <mxCell id="yrqPe_XxJN6eDIBGjcw5-7" value="Storage" style="rounded=0;whiteSpace=wrap;html=1;fillColor=#cdeb8b;strokeColor=#36393d;fontStyle=0;fontSize=14;" parent="1" vertex="1">
          <mxGeometry x="517.5" y="790" width="85" height="30" as="geometry" />
        </mxCell>
        <mxCell id="06KCs6LuLPnl9y4rcM3Y-6" style="edgeStyle=orthogonalEdgeStyle;rounded=0;orthogonalLoop=1;jettySize=auto;html=1;entryX=0.5;entryY=0;entryDx=0;entryDy=0;fillColor=#f8cecc;strokeColor=#b85450;" parent="1" source="yrqPe_XxJN6eDIBGjcw5-9" target="yrqPe_XxJN6eDIBGjcw5-5" edge="1">
          <mxGeometry relative="1" as="geometry" />
        </mxCell>
        <mxCell id="yrqPe_XxJN6eDIBGjcw5-9" value="Display" style="rounded=0;whiteSpace=wrap;html=1;fillColor=#cdeb8b;strokeColor=#36393d;fontStyle=0;fontSize=14;" parent="1" vertex="1">
          <mxGeometry x="423" y="750" width="85" height="70" as="geometry" />
        </mxCell>
        <mxCell id="yrqPe_XxJN6eDIBGjcw5-10" value="Top-Level Application" style="rounded=0;whiteSpace=wrap;html=1;fillColor=#cce5ff;strokeColor=#36393d;fontStyle=0;fontSize=14;" parent="1" vertex="1">
          <mxGeometry x="142" y="710" width="460.5" height="30" as="geometry" />
        </mxCell>
        <mxCell id="yrqPe_XxJN6eDIBGjcw5-11" value="Settings" style="rounded=0;whiteSpace=wrap;html=1;fillColor=#cdeb8b;strokeColor=#36393d;fontStyle=0;fontSize=14;" parent="1" vertex="1">
          <mxGeometry x="517.5" y="750" width="85" height="30" as="geometry" />
        </mxCell>
        <mxCell id="06KCs6LuLPnl9y4rcM3Y-4" style="edgeStyle=orthogonalEdgeStyle;rounded=0;orthogonalLoop=1;jettySize=auto;html=1;entryX=0.5;entryY=0;entryDx=0;entryDy=0;fillColor=#f8cecc;strokeColor=#b85450;" parent="1" source="06KCs6LuLPnl9y4rcM3Y-1" target="06KCs6LuLPnl9y4rcM3Y-2" edge="1">
          <mxGeometry relative="1" as="geometry" />
        </mxCell>
        <mxCell id="06KCs6LuLPnl9y4rcM3Y-1" value="Time" style="rounded=0;whiteSpace=wrap;html=1;fillColor=#cdeb8b;strokeColor=#36393d;fontStyle=0;fontSize=14;" parent="1" vertex="1">
          <mxGeometry x="235" y="750" width="85" height="70" as="geometry" />
        </mxCell>
        <mxCell id="06KCs6LuLPnl9y4rcM3Y-2" value="DS3231" style="rounded=0;whiteSpace=wrap;html=1;fillColor=#ffff88;strokeColor=#36393d;fontStyle=0;fontSize=14;" parent="1" vertex="1">
          <mxGeometry x="235" y="840" width="85" height="30" as="geometry" />
        </mxCell>
        <mxCell id="RN0lCSTv_sqDLOUMN416-5" style="edgeStyle=orthogonalEdgeStyle;rounded=0;orthogonalLoop=1;jettySize=auto;html=1;entryX=0.5;entryY=0;entryDx=0;entryDy=0;fillColor=#f8cecc;strokeColor=#b85450;" edge="1" parent="1" source="RN0lCSTv_sqDLOUMN416-6" target="RN0lCSTv_sqDLOUMN416-7">
          <mxGeometry relative="1" as="geometry" />
        </mxCell>
        <mxCell id="RN0lCSTv_sqDLOUMN416-6" value="Serial" style="rounded=0;whiteSpace=wrap;html=1;fillColor=#cdeb8b;strokeColor=#36393d;fontStyle=0;fontSize=14;" vertex="1" parent="1">
          <mxGeometry x="142" y="750" width="85" height="70" as="geometry" />
        </mxCell>
        <mxCell id="RN0lCSTv_sqDLOUMN416-7" value="UART0" style="rounded=0;whiteSpace=wrap;html=1;fillColor=#ffff88;strokeColor=#36393d;fontStyle=0;fontSize=14;" vertex="1" parent="1">
          <mxGeometry x="142" y="840" width="85" height="30" as="geometry" />
        </mxCell>
      </root>
    </mxGraphModel>
  </diagram>
  <diagram id="Vxmukqiv5L9Z8X2Wa_FC" name="firmware-flow">
    <mxGraphModel dx="738" dy="525" grid="1" gridSize="10" guides="1" tooltips="1" connect="1" arrows="1" fold="1" page="1" pageScale="1" pageWidth="850" pageHeight="1100" math="0" shadow="0">
      <root>
        <mxCell id="0" />
        <mxCell id="1" parent="0" />
        <mxCell id="wkx3j7vF20gk3ggLc-Tp-1" value="" style="edgeStyle=orthogonalEdgeStyle;rounded=0;orthogonalLoop=1;jettySize=auto;html=1;" parent="1" source="wkx3j7vF20gk3ggLc-Tp-2" target="wkx3j7vF20gk3ggLc-Tp-4" edge="1">
          <mxGeometry relative="1" as="geometry" />
        </mxCell>
        <mxCell id="wkx3j7vF20gk3ggLc-Tp-2" value="Start" style="rounded=0;whiteSpace=wrap;html=1;fillColor=#cdeb8b;strokeColor=#36393d;fontStyle=0;fontSize=14;" parent="1" vertex="1">
          <mxGeometry x="260" y="130" width="100" height="30" as="geometry" />
        </mxCell>
        <mxCell id="wkx3j7vF20gk3ggLc-Tp-3" value="" style="edgeStyle=orthogonalEdgeStyle;rounded=0;orthogonalLoop=1;jettySize=auto;html=1;" parent="1" source="wkx3j7vF20gk3ggLc-Tp-4" target="wkx3j7vF20gk3ggLc-Tp-10" edge="1">
          <mxGeometry relative="1" as="geometry" />
        </mxCell>
        <mxCell id="wkx3j7vF20gk3ggLc-Tp-4" value="Peripheral init" style="rounded=0;whiteSpace=wrap;html=1;fillColor=#cdeb8b;strokeColor=#36393d;fontStyle=0;fontSize=14;" parent="1" vertex="1">
          <mxGeometry x="260" y="190" width="100" height="30" as="geometry" />
        </mxCell>
        <mxCell id="wkx3j7vF20gk3ggLc-Tp-5" value="" style="edgeStyle=orthogonalEdgeStyle;rounded=0;orthogonalLoop=1;jettySize=auto;html=1;" parent="1" source="wkx3j7vF20gk3ggLc-Tp-6" target="wkx3j7vF20gk3ggLc-Tp-8" edge="1">
          <mxGeometry relative="1" as="geometry" />
        </mxCell>
        <mxCell id="wkx3j7vF20gk3ggLc-Tp-6" value="Connect to WiFi" style="rounded=0;whiteSpace=wrap;html=1;fillColor=#cdeb8b;strokeColor=#36393d;fontStyle=0;fontSize=14;" parent="1" vertex="1">
          <mxGeometry x="240" y="310" width="140" height="30" as="geometry" />
        </mxCell>
        <mxCell id="wkx3j7vF20gk3ggLc-Tp-7" value="" style="edgeStyle=orthogonalEdgeStyle;rounded=0;orthogonalLoop=1;jettySize=auto;html=1;" parent="1" source="wkx3j7vF20gk3ggLc-Tp-8" target="wkx3j7vF20gk3ggLc-Tp-12" edge="1">
          <mxGeometry relative="1" as="geometry" />
        </mxCell>
        <mxCell id="wkx3j7vF20gk3ggLc-Tp-8" value="Connect to MQTT" style="rounded=0;whiteSpace=wrap;html=1;fillColor=#cdeb8b;strokeColor=#36393d;fontStyle=0;fontSize=14;" parent="1" vertex="1">
          <mxGeometry x="240" y="370" width="140" height="30" as="geometry" />
        </mxCell>
        <mxCell id="wkx3j7vF20gk3ggLc-Tp-9" style="edgeStyle=orthogonalEdgeStyle;rounded=0;orthogonalLoop=1;jettySize=auto;html=1;entryX=0.5;entryY=0;entryDx=0;entryDy=0;" parent="1" source="wkx3j7vF20gk3ggLc-Tp-10" target="wkx3j7vF20gk3ggLc-Tp-6" edge="1">
          <mxGeometry relative="1" as="geometry" />
        </mxCell>
        <mxCell id="wkx3j7vF20gk3ggLc-Tp-10" value="Load settings.json" style="rounded=0;whiteSpace=wrap;html=1;fillColor=#cdeb8b;strokeColor=#36393d;fontStyle=0;fontSize=14;" parent="1" vertex="1">
          <mxGeometry x="240" y="250" width="140" height="30" as="geometry" />
        </mxCell>
        <mxCell id="wkx3j7vF20gk3ggLc-Tp-11" value="" style="edgeStyle=orthogonalEdgeStyle;rounded=0;orthogonalLoop=1;jettySize=auto;html=1;" parent="1" source="wkx3j7vF20gk3ggLc-Tp-12" target="wkx3j7vF20gk3ggLc-Tp-14" edge="1">
          <mxGeometry relative="1" as="geometry" />
        </mxCell>
        <mxCell id="wkx3j7vF20gk3ggLc-Tp-12" value="Fetch sensor data" style="rounded=0;whiteSpace=wrap;html=1;fillColor=#cdeb8b;strokeColor=#36393d;fontStyle=0;fontSize=14;" parent="1" vertex="1">
          <mxGeometry x="420" y="370" width="140" height="30" as="geometry" />
        </mxCell>
        <mxCell id="wkx3j7vF20gk3ggLc-Tp-13" value="" style="edgeStyle=orthogonalEdgeStyle;rounded=0;orthogonalLoop=1;jettySize=auto;html=1;" parent="1" source="wkx3j7vF20gk3ggLc-Tp-14" target="wkx3j7vF20gk3ggLc-Tp-16" edge="1">
          <mxGeometry relative="1" as="geometry" />
        </mxCell>
        <mxCell id="wkx3j7vF20gk3ggLc-Tp-14" value="Publish to broker" style="rounded=0;whiteSpace=wrap;html=1;fillColor=#cdeb8b;strokeColor=#36393d;fontStyle=0;fontSize=14;" parent="1" vertex="1">
          <mxGeometry x="420" y="310" width="140" height="30" as="geometry" />
        </mxCell>
        <mxCell id="wkx3j7vF20gk3ggLc-Tp-15" style="edgeStyle=orthogonalEdgeStyle;rounded=0;orthogonalLoop=1;jettySize=auto;html=1;entryX=1;entryY=0.5;entryDx=0;entryDy=0;" parent="1" source="wkx3j7vF20gk3ggLc-Tp-16" target="wkx3j7vF20gk3ggLc-Tp-12" edge="1">
          <mxGeometry relative="1" as="geometry">
            <Array as="points">
              <mxPoint x="610" y="265" />
              <mxPoint x="610" y="385" />
            </Array>
          </mxGeometry>
        </mxCell>
        <mxCell id="wkx3j7vF20gk3ggLc-Tp-16" value="Delay&amp;nbsp;" style="rounded=0;whiteSpace=wrap;html=1;fillColor=#cdeb8b;strokeColor=#36393d;fontStyle=0;fontSize=14;" parent="1" vertex="1">
          <mxGeometry x="420" y="250" width="140" height="30" as="geometry" />
        </mxCell>
      </root>
    </mxGraphModel>
  </diagram>
  <diagram id="xvbrMoaE_aogStxJmXac" name="Workflow">
    <mxGraphModel dx="738" dy="525" grid="1" gridSize="10" guides="1" tooltips="1" connect="1" arrows="1" fold="1" page="1" pageScale="1" pageWidth="850" pageHeight="1100" math="0" shadow="0">
      <root>
        <mxCell id="0" />
        <mxCell id="1" parent="0" />
        <mxCell id="vpoEg7eErEO1bCnXk5EU-3" value="" style="edgeStyle=orthogonalEdgeStyle;rounded=0;orthogonalLoop=1;jettySize=auto;html=1;" edge="1" parent="1" source="vpoEg7eErEO1bCnXk5EU-1" target="vpoEg7eErEO1bCnXk5EU-2">
          <mxGeometry relative="1" as="geometry" />
        </mxCell>
        <mxCell id="vpoEg7eErEO1bCnXk5EU-1" value="Requirements" style="rounded=0;whiteSpace=wrap;html=1;fillColor=#cdeb8b;strokeColor=#36393d;fontSize=15;" vertex="1" parent="1">
          <mxGeometry x="120" y="120" width="120" height="50" as="geometry" />
        </mxCell>
        <mxCell id="vpoEg7eErEO1bCnXk5EU-7" value="" style="edgeStyle=orthogonalEdgeStyle;rounded=0;orthogonalLoop=1;jettySize=auto;html=1;" edge="1" parent="1" source="vpoEg7eErEO1bCnXk5EU-2" target="vpoEg7eErEO1bCnXk5EU-6">
          <mxGeometry relative="1" as="geometry" />
        </mxCell>
        <mxCell id="vpoEg7eErEO1bCnXk5EU-2" value="Tech. Specs" style="rounded=0;whiteSpace=wrap;html=1;fillColor=#cdeb8b;strokeColor=#36393d;fontSize=15;" vertex="1" parent="1">
          <mxGeometry x="280" y="120" width="120" height="50" as="geometry" />
        </mxCell>
        <mxCell id="vpoEg7eErEO1bCnXk5EU-9" value="" style="edgeStyle=orthogonalEdgeStyle;rounded=0;orthogonalLoop=1;jettySize=auto;html=1;" edge="1" parent="1" source="vpoEg7eErEO1bCnXk5EU-6" target="vpoEg7eErEO1bCnXk5EU-8">
          <mxGeometry relative="1" as="geometry" />
        </mxCell>
        <mxCell id="vpoEg7eErEO1bCnXk5EU-6" value="Hardware Design" style="rounded=0;whiteSpace=wrap;html=1;fillColor=#cdeb8b;strokeColor=#36393d;fontSize=15;" vertex="1" parent="1">
          <mxGeometry x="440" y="120" width="120" height="50" as="geometry" />
        </mxCell>
        <mxCell id="vpoEg7eErEO1bCnXk5EU-11" value="" style="edgeStyle=orthogonalEdgeStyle;rounded=0;orthogonalLoop=1;jettySize=auto;html=1;" edge="1" parent="1" source="vpoEg7eErEO1bCnXk5EU-8" target="vpoEg7eErEO1bCnXk5EU-10">
          <mxGeometry relative="1" as="geometry" />
        </mxCell>
        <mxCell id="vpoEg7eErEO1bCnXk5EU-8" value="Firmware&lt;br&gt;Architecture" style="rounded=0;whiteSpace=wrap;html=1;fillColor=#cdeb8b;strokeColor=#36393d;fontSize=15;" vertex="1" parent="1">
          <mxGeometry x="440" y="210" width="120" height="50" as="geometry" />
        </mxCell>
        <mxCell id="vpoEg7eErEO1bCnXk5EU-13" value="" style="edgeStyle=orthogonalEdgeStyle;rounded=0;orthogonalLoop=1;jettySize=auto;html=1;" edge="1" parent="1" source="vpoEg7eErEO1bCnXk5EU-10" target="vpoEg7eErEO1bCnXk5EU-12">
          <mxGeometry relative="1" as="geometry" />
        </mxCell>
        <mxCell id="vpoEg7eErEO1bCnXk5EU-10" value="Firmware&lt;br&gt;Design" style="rounded=0;whiteSpace=wrap;html=1;fillColor=#cdeb8b;strokeColor=#36393d;fontSize=15;" vertex="1" parent="1">
          <mxGeometry x="280" y="210" width="120" height="50" as="geometry" />
        </mxCell>
        <mxCell id="vpoEg7eErEO1bCnXk5EU-12" value="Program Flow" style="rounded=0;whiteSpace=wrap;html=1;fillColor=#cdeb8b;strokeColor=#36393d;fontSize=15;" vertex="1" parent="1">
          <mxGeometry x="120" y="210" width="120" height="50" as="geometry" />
        </mxCell>
      </root>
    </mxGraphModel>
  </diagram>
</mxfile>
